<svg width="93" height="94" viewBox="0 0 93 94" fill="none" xmlns="http://www.w3.org/2000/svg">
<g clip-path="url(#clip0)" filter="url(#filter0_d)">
<path d="M88.9834 23.2097C88.8841 22.2847 88.316 21.466 87.4669 21.0651L47.6231 2.25257C46.9111 1.91646 46.0886 1.91646 45.3766 2.25257L5.53282 21.0651C4.68382 21.466 4.11571 22.2845 4.01627 23.2097C4.01411 23.229 4 23.4863 4 23.5005V69.188C4 70.2868 4.66124 71.2751 5.66979 71.6831L45.5135 87.8081C45.8301 87.9363 46.1651 88.0005 46.5 88.0005C46.8349 88.0005 47.1699 87.9365 47.4865 87.8081L87.3302 71.6831C88.3388 71.2751 89 70.2868 89 69.188V23.5005C89 23.4863 88.9856 23.2288 88.9834 23.2097ZM46.5 7.6536L79.6606 23.3106L66.8917 28.4784L33.107 13.9773L46.5 7.6536ZM26.6296 17.0357L59.8902 31.3118L46.5 36.7308L13.3394 23.3106L26.6296 17.0357ZM9.3125 27.4699L43.8438 41.4449V81.3434L9.3125 67.3684V27.4699ZM49.1562 81.3435V41.4449L83.6875 27.4699V67.3684L49.1562 81.3435Z" fill="url(#paint0_linear)"/>
</g>
<defs>
<filter id="filter0_d" x="0" y="0" width="93" height="94" filterUnits="userSpaceOnUse" color-interpolation-filters="sRGB">
<feFlood flood-opacity="0" result="BackgroundImageFix"/>
<feColorMatrix in="SourceAlpha" type="matrix" values="0 0 0 0 0 0 0 0 0 0 0 0 0 0 0 0 0 0 127 0"/>
<feOffset dy="2"/>
<feGaussianBlur stdDeviation="2"/>
<feColorMatrix type="matrix" values="0 0 0 0 0 0 0 0 0 0 0 0 0 0 0 0 0 0 0.075 0"/>
<feBlend mode="normal" in2="BackgroundImageFix" result="effect1_dropShadow"/>
<feBlend mode="normal" in="SourceGraphic" in2="effect1_dropShadow" result="shape"/>
</filter>
<linearGradient id="paint0_linear" x1="4" y1="-150.649" x2="166.402" y2="-114.98" gradientUnits="userSpaceOnUse">
<stop stop-color="#F05937"/>
<stop offset="1" stop-color="#F08343"/>
</linearGradient>
<clipPath id="clip0">
<rect width="85" height="86" fill="white" transform="translate(4 2)"/>
</clipPath>
</defs>
</svg>
