<svg width="15" height="15" viewBox="0 0 15 15" fill="none" xmlns="http://www.w3.org/2000/svg">
<path fill-rule="evenodd" clip-rule="evenodd" d="M13.6785 13.6785C14.1387 13.2183 14.1387 12.4721 13.6785 12.0118L8.67887 7.0122L13.6785 2.01254C14.1388 1.5523 14.1388 0.806107 13.6785 0.34587C13.2183 -0.114367 12.4721 -0.114369 12.0119 0.345869L7.0122 5.34553L2.01185 0.345178C1.55161 -0.115059 0.805416 -0.115059 0.345179 0.345178C-0.115058 0.805415 -0.11506 1.55161 0.345177 2.01184L5.34553 7.0122L0.345195 12.0125C-0.115042 12.4728 -0.115042 13.219 0.345195 13.6792C0.805433 14.1394 1.55162 14.1394 2.01186 13.6792L7.0122 8.67887L12.0118 13.6785C12.4721 14.1387 13.2183 14.1387 13.6785 13.6785Z" fill="#858585"/>
</svg>
