<svg width="94" height="93" viewBox="0 0 94 93" fill="none" xmlns="http://www.w3.org/2000/svg">
<g filter="url(#filter0_d)">
<path d="M87.7809 28.7496C84.8339 25.8367 80.0386 25.8369 77.0905 28.7503C76.1838 29.6472 70.3948 35.3736 69.5105 36.2485V16.5141C69.5105 14.5186 68.7242 12.6426 67.2965 11.2316L60.1704 4.18809C58.7428 2.77695 56.8446 2 54.8256 2H11.5612C7.39344 2 4.00266 5.35136 4.00266 9.4707V79.5293C4.00266 83.6486 7.39344 87 11.5612 87H61.9519C66.1197 87 69.5105 83.6486 69.5105 79.5293V57.388L87.7807 39.3148C90.7348 36.3953 90.7355 31.6695 87.7809 28.7496ZM54.3934 6.98047C54.8695 6.98047 55.7867 6.89896 56.6073 7.70978L63.7335 14.7533C64.533 15.5437 64.4716 16.4098 64.4716 16.9414H54.3934V6.98047ZM64.4714 79.5293C64.4714 80.9024 63.3413 82.0195 61.9519 82.0195H11.5612C10.172 82.0195 9.04172 80.9024 9.04172 79.5293V9.4707C9.04172 8.09759 10.172 6.98047 11.5612 6.98047H49.3542V19.4316C49.3542 20.8069 50.4823 21.9219 51.8737 21.9219H64.4714V41.2333C64.4714 41.2333 57.0381 48.5865 57.0378 48.5866L53.4763 52.1068C53.1998 52.3801 52.9912 52.7135 52.8676 53.0802L49.3043 63.6454C49.0025 64.5402 49.2381 65.5269 49.913 66.1938C50.5888 66.8616 51.5873 67.0934 52.4914 66.7954L63.1809 63.2737C63.5519 63.1515 63.8892 62.9455 64.1657 62.6721L64.4714 62.3699V79.5293ZM58.8209 53.8678L62.384 57.3895L61.023 58.7347L55.6784 60.4954L57.4599 55.2128L58.8209 53.8678ZM65.9465 53.8669L62.3834 50.3452C64.2807 48.4684 72.7076 40.1325 74.4948 38.3646L78.0579 41.8862L65.9465 53.8669ZM84.2169 35.7938L81.6196 38.3631L78.0565 34.8414L80.6547 32.2713C81.6376 31.3003 83.2357 31.3004 84.218 32.2713C85.2001 33.2425 85.2053 34.8168 84.2169 35.7938Z" fill="url(#paint0_linear)"/>
<path d="M51.8741 26.9023H16.6007C15.2092 26.9023 14.0811 28.0173 14.0811 29.3926C14.0811 30.7679 15.2092 31.8828 16.6007 31.8828H51.8741C53.2655 31.8828 54.3936 30.7679 54.3936 29.3926C54.3936 28.0173 53.2655 26.9023 51.8741 26.9023Z" fill="url(#paint1_linear)"/>
<path d="M41.796 36.8633H16.6007C15.2092 36.8633 14.0811 37.9782 14.0811 39.3535C14.0811 40.7288 15.2092 41.8438 16.6007 41.8438H41.796C43.1874 41.8438 44.3155 40.7288 44.3155 39.3535C44.3155 37.9782 43.1874 36.8633 41.796 36.8633Z" fill="url(#paint2_linear)"/>
<path d="M41.796 46.8242H16.6007C15.2092 46.8242 14.0811 47.9392 14.0811 49.3145C14.0811 50.6897 15.2092 51.8047 16.6007 51.8047H41.796C43.1874 51.8047 44.3155 50.6897 44.3155 49.3145C44.3155 47.9392 43.1874 46.8242 41.796 46.8242Z" fill="url(#paint3_linear)"/>
<path d="M41.796 56.7852H16.6007C15.2092 56.7852 14.0811 57.9001 14.0811 59.2754C14.0811 60.6507 15.2092 61.7656 16.6007 61.7656H41.796C43.1874 61.7656 44.3155 60.6507 44.3155 59.2754C44.3155 57.9001 43.1874 56.7852 41.796 56.7852Z" fill="url(#paint4_linear)"/>
<path d="M51.8741 72.0586H36.7569C35.3655 72.0586 34.2374 73.1736 34.2374 74.5488C34.2374 75.9241 35.3655 77.0391 36.7569 77.0391H51.8741C53.2656 77.0391 54.3936 75.9241 54.3936 74.5488C54.3936 73.1736 53.2656 72.0586 51.8741 72.0586Z" fill="url(#paint5_linear)"/>
</g>
<defs>
<filter id="filter0_d" x="0" y="0" width="94" height="93" filterUnits="userSpaceOnUse" color-interpolation-filters="sRGB">
<feFlood flood-opacity="0" result="BackgroundImageFix"/>
<feColorMatrix in="SourceAlpha" type="matrix" values="0 0 0 0 0 0 0 0 0 0 0 0 0 0 0 0 0 0 127 0"/>
<feOffset dy="2"/>
<feGaussianBlur stdDeviation="2"/>
<feColorMatrix type="matrix" values="0 0 0 0 0 0 0 0 0 0 0 0 0 0 0 0 0 0 0.075 0"/>
<feBlend mode="normal" in2="BackgroundImageFix" result="effect1_dropShadow"/>
<feBlend mode="normal" in="SourceGraphic" in2="effect1_dropShadow" result="shape"/>
</filter>
<linearGradient id="paint0_linear" x1="4.00266" y1="-148.875" x2="167.943" y2="-112.018" gradientUnits="userSpaceOnUse">
<stop stop-color="#F05937"/>
<stop offset="1" stop-color="#F08343"/>
</linearGradient>
<linearGradient id="paint1_linear" x1="14.0811" y1="18.062" x2="33.144" y2="52.3503" gradientUnits="userSpaceOnUse">
<stop stop-color="#F05937"/>
<stop offset="1" stop-color="#F08343"/>
</linearGradient>
<linearGradient id="paint2_linear" x1="14.0811" y1="28.0229" x2="35.5548" y2="56.9914" gradientUnits="userSpaceOnUse">
<stop stop-color="#F05937"/>
<stop offset="1" stop-color="#F08343"/>
</linearGradient>
<linearGradient id="paint3_linear" x1="14.0811" y1="37.9839" x2="35.5548" y2="66.9523" gradientUnits="userSpaceOnUse">
<stop stop-color="#F05937"/>
<stop offset="1" stop-color="#F08343"/>
</linearGradient>
<linearGradient id="paint4_linear" x1="14.0811" y1="47.9448" x2="35.5548" y2="76.9133" gradientUnits="userSpaceOnUse">
<stop stop-color="#F05937"/>
<stop offset="1" stop-color="#F08343"/>
</linearGradient>
<linearGradient id="paint5_linear" x1="34.2374" y1="63.2183" x2="56.5549" y2="83.2895" gradientUnits="userSpaceOnUse">
<stop stop-color="#F05937"/>
<stop offset="1" stop-color="#F08343"/>
</linearGradient>
</defs>
</svg>
