<svg width="93" height="94" viewBox="0 0 93 94" fill="none" xmlns="http://www.w3.org/2000/svg">
<g clip-path="url(#clip0)" filter="url(#filter0_d)">
<path fill-rule="evenodd" clip-rule="evenodd" d="M46.5006 2C28.9636 2 14.6977 14.822 14.6977 30.5837V33.6503H14.482C8.89442 33.6503 4.34816 38.1443 4.34816 43.6676V58.2673C4.34816 63.7906 8.89442 68.2846 14.482 68.2846H22.4596C24.246 68.2846 25.6937 66.8534 25.6937 65.0877V36.8474C25.6939 35.0816 24.246 33.6503 22.4596 33.6503H21.1661V30.5837C21.1661 18.0281 32.5311 7.81365 46.5006 7.81365C60.47 7.81365 71.8351 18.0283 71.8351 30.5837V33.6503H70.5414C68.755 33.6503 67.3073 35.0816 67.3073 36.8473V65.0877C67.3073 66.8535 68.7552 68.2846 70.5414 68.2846H73.4349C72.1781 71.1659 69.2762 73.1876 65.9057 73.1876H59.954C58.5456 68.3329 54.0133 64.7695 48.6556 64.7695C42.1775 64.7695 36.9059 69.9795 36.9059 76.3843C36.9059 82.7892 42.2259 88.0001 48.7645 88.0001C51.9934 88.0001 55.1036 86.6988 57.2963 84.429C58.6395 83.04 59.5739 81.3805 60.0503 79.5816H65.9057C72.9315 79.5816 78.819 74.6712 80.2412 68.1399C85.0115 67.3293 88.6528 63.2105 88.6519 58.2673V43.6676C88.6519 38.1443 84.1068 33.6503 78.5181 33.6503H78.3035V30.5837C78.3035 14.822 64.0365 2 46.5006 2ZM19.2255 61.8907H14.482C12.4271 61.8907 10.8166 60.2997 10.8166 58.2675V43.6678C10.8166 41.6366 12.4273 40.0446 14.482 40.0446H19.2255V61.8907ZM78.5181 61.8907C80.574 61.8907 82.1835 60.2997 82.1835 58.2675V43.6676C82.1835 41.6366 80.574 40.0444 78.5181 40.0444H73.7757V61.8907H78.5181ZM52.6218 80.0096C51.6418 81.0231 50.2361 81.605 48.7656 81.605C45.8439 81.605 43.3753 79.2136 43.3753 76.3832C43.3753 73.5049 45.7438 71.1624 48.6568 71.1624C51.5698 71.1624 53.9393 73.5059 53.9403 76.382C53.9403 76.431 53.9414 76.4789 53.9436 76.528C54.0027 77.8292 53.5339 79.0665 52.6218 80.0096Z" fill="url(#paint0_linear)"/>
</g>
<defs>
<filter id="filter0_d" x="-1" y="0" width="95" height="94" filterUnits="userSpaceOnUse" color-interpolation-filters="sRGB">
<feFlood flood-opacity="0" result="BackgroundImageFix"/>
<feColorMatrix in="SourceAlpha" type="matrix" values="0 0 0 0 0 0 0 0 0 0 0 0 0 0 0 0 0 0 127 0"/>
<feOffset dy="2"/>
<feGaussianBlur stdDeviation="2"/>
<feColorMatrix type="matrix" values="0 0 0 0 0 0 0 0 0 0 0 0 0 0 0 0 0 0 0.075 0"/>
<feBlend mode="normal" in2="BackgroundImageFix" result="effect1_dropShadow"/>
<feBlend mode="normal" in="SourceGraphic" in2="effect1_dropShadow" result="shape"/>
</filter>
<linearGradient id="paint0_linear" x1="4.34816" y1="-150.65" x2="165.541" y2="-115.536" gradientUnits="userSpaceOnUse">
<stop stop-color="#F05937"/>
<stop offset="1" stop-color="#F08343"/>
</linearGradient>
<clipPath id="clip0">
<rect width="87" height="86" fill="white" transform="translate(3 2)"/>
</clipPath>
</defs>
</svg>
