<svg width="20" height="20" viewBox="0 0 20 20" fill="none" xmlns="http://www.w3.org/2000/svg">
<path fill-rule="evenodd" clip-rule="evenodd" d="M9.91675 19.44C10.5676 19.44 11.0953 18.9124 11.0953 18.2615L11.0953 11.191L18.1658 11.191C18.8167 11.191 19.3444 10.6633 19.3444 10.0124C19.3444 9.36158 18.8167 8.83394 18.1659 8.83394L11.0953 8.83394L11.0953 1.76237C11.0953 1.1115 10.5676 0.583859 9.91675 0.583859C9.26587 0.583859 8.73824 1.11149 8.73824 1.76237L8.73824 8.83394L1.66669 8.83394C1.01582 8.83394 0.488181 9.36158 0.488181 10.0125C0.488182 10.6633 1.01582 11.191 1.66669 11.191H8.73824L8.73824 18.2615C8.73824 18.9124 9.26587 19.44 9.91675 19.44Z" fill="#717171"/>
</svg>
