<svg width="86" height="85" viewBox="0 0 86 85" fill="none" xmlns="http://www.w3.org/2000/svg">
<path d="M83.7809 26.7496C80.8339 23.8367 76.0386 23.8369 73.0905 26.7503C72.1838 27.6472 66.3948 33.3736 65.5105 34.2485V14.5141C65.5105 12.5186 64.7242 10.6426 63.2965 9.23163L56.1704 2.18809C54.7428 0.776953 52.8446 0 50.8256 0H7.56125C3.39344 0 0.00265503 3.35136 0.00265503 7.4707V77.5293C0.00265503 81.6486 3.39344 85 7.56125 85H57.9519C62.1197 85 65.5105 81.6486 65.5105 77.5293V55.388L83.7807 37.3148C86.7348 34.3953 86.7355 29.6695 83.7809 26.7496ZM50.3934 4.98047C50.8695 4.98047 51.7867 4.89896 52.6073 5.70978L59.7335 12.7533C60.533 13.5437 60.4716 14.4098 60.4716 14.9414H50.3934V4.98047ZM60.4714 77.5293C60.4714 78.9024 59.3413 80.0195 57.9519 80.0195H7.56125C6.17198 80.0195 5.04172 78.9024 5.04172 77.5293V7.4707C5.04172 6.09759 6.17198 4.98047 7.56125 4.98047H45.3542V17.4316C45.3542 18.8069 46.4823 19.9219 47.8737 19.9219H60.4714V39.2333C60.4714 39.2333 53.0381 46.5865 53.0378 46.5866L49.4763 50.1068C49.1998 50.3801 48.9912 50.7135 48.8676 51.0802L45.3043 61.6454C45.0025 62.5402 45.2381 63.5269 45.913 64.1938C46.5888 64.8616 47.5873 65.0934 48.4914 64.7954L59.1809 61.2737C59.5519 61.1515 59.8892 60.9455 60.1657 60.6721L60.4714 60.3699V77.5293ZM54.8209 51.8678L58.384 55.3895L57.023 56.7347L51.6784 58.4954L53.4599 53.2128L54.8209 51.8678ZM61.9465 51.8669L58.3834 48.3452C60.2807 46.4684 68.7076 38.1325 70.4948 36.3646L74.0579 39.8862L61.9465 51.8669ZM80.2169 33.7938L77.6196 36.3631L74.0565 32.8414L76.6547 30.2713C77.6376 29.3003 79.2357 29.3004 80.218 30.2713C81.2001 31.2425 81.2053 32.8168 80.2169 33.7938Z" fill="url(#paint0_linear)"/>
<defs>
<linearGradient id="paint0_linear" x1="0.00265674" y1="-150.875" x2="163.943" y2="-114.018" gradientUnits="userSpaceOnUse">
<stop stop-color="#F05937"/>
<stop offset="1" stop-color="#F08343"/>
</linearGradient>
</defs>
</svg>
